<svg 
 xmlns="http://www.w3.org/2000/svg"
 xmlns:xlink="http://www.w3.org/1999/xlink"
 width="254px" height="200px" viewBox="0 0 130 100">
<path fill-rule="evenodd"  fill="rgb(60, 60, 60)"
 d="M235.564,182.191 C211.377,205.840 172.579,205.422 148.910,181.254 C142.991,175.211 143.097,165.520 149.143,159.608 C155.192,153.696 164.888,153.801 170.808,159.843 C182.643,171.928 202.041,172.137 214.135,160.312 C226.229,148.486 226.438,129.105 214.606,117.020 C202.770,104.937 183.370,104.727 171.277,116.553 L104.153,182.182 C79.966,205.832 41.168,205.412 17.498,181.245 C-6.175,157.077 -5.754,118.314 18.435,94.663 C30.409,82.956 45.962,77.156 61.489,77.207 C60.929,73.735 60.628,70.178 60.628,66.548 C60.628,29.794 90.450,-0.001 127.233,-0.001 C164.020,-0.001 193.843,29.794 193.843,66.548 C193.843,70.180 193.541,73.741 192.980,77.215 C208.792,77.286 224.569,83.426 236.502,95.610 C260.171,119.776 259.754,158.541 235.564,182.191 ZM39.863,116.544 C27.769,128.369 27.559,147.750 39.395,159.833 C51.232,171.917 70.629,172.127 82.724,160.303 C94.818,148.477 95.027,129.094 83.191,117.011 C71.355,104.928 51.958,104.718 39.863,116.544 ZM127.233,30.612 C107.371,30.612 91.267,46.701 91.267,66.548 C91.267,86.396 107.371,102.485 127.233,102.485 C147.098,102.485 163.201,86.396 163.201,66.548 C163.201,46.701 147.098,30.612 127.233,30.612 Z"/>
</svg>